{"title":"The Day After Tomorrow(2004)MP-4[DaScubaDude]","uid":12389022,"size":1514010550,"categoryP":"video","categoryS":"movies","magnet":"?xt=urn:btih:1c0363d5a86e40ce634c93d6a00aa0c86c584a70&amp;dn=The+Day+After+Tomorrow%282004%29MP-4%5BDaScubaDude%5D&amp;tr=udp%3A%2F%2Ftracker.openbittorrent.com%3A80&amp;tr=udp%3A%2F%2Fopen.demonii.com%3A1337&amp;tr=udp%3A%2F%2Ftracker.coppersurfer.tk%3A6969&amp;tr=udp%3A%2F%2Fexodus.desync.com%3A6969","seeders":3,"leechers":0,"uploader":"dascuba","files":1,"time":1441862185,"description":"The Day After Tomorrow (2004)\nPG-13  |  124 min  |  Action, Adventure, Sci-Fi  |  28 May 2004 (USA)\n6.4 Your rating:   -/10   Ratings: 6.4/10 from 306,597 users   Metascore: 47/100 \nReviews: 1,149 user | 238 critic | 38 from Metacritic.com\nJack Hall, paleoclimatologist, must make a daring trek across America to reach his son, trapped in the cross-hairs of a sudden international storm which plunges the planet into a new Ice Age.\n\nDirector: Roland Emmerich\nWriters: Roland Emmerich (story), Roland Emmerich (screenplay), 1 more credit Â»\nStars: Dennis Quaid, Jake Gyllenhaal, Emmy Rossum \n\nGeneral\nComplete name                            : C:The Day After TomorrowTHE_DAY_AFTER_TOMORROW_Title1.mp4\nFormat                                   : MPEG-4\nFormat profile                           : Base Media\nCodec ID                                 : isom\nFile size                                : 1.41 GiB\nDuration                                 : 2h 3mn\nOverall bit rate mode                    : Constant\nOverall bit rate                         : 1 634 Kbps\nMovie name                               : THE_DAY_AFTER_TOMORROW\nGenre                                    : Thriller\nWriting application                      : Lavf54.6.100\n\nVideo\nID                                       : 1\nFormat                                   : MPEG-4 Visual\nFormat settings, BVOP                    : No\nFormat settings, QPel                    : No\nFormat settings, GMC                     : No warppoints\nFormat settings, Matrix                  : Default (H.263)\nCodec ID                                 : 20\nDuration                                 : 2h 3mn\nBit rate mode                            : Constant\nBit rate                                 : 1 500 Kbps\nWidth                                    : 720 pixels\nHeight                                   : 404 pixels\nDisplay aspect ratio                     : 16:9\nFrame rate mode                          : Constant\nFrame rate                               : 29.970 fps\nColor space                              : YUV\nChroma subsampling                       : 4:2:0\nBit depth                                : 8 bits\nScan type                                : Progressive\nCompression mode                         : Lossy\nBits/(Pixel*Frame)                       : 0.172\nStream size                              : 1.29 GiB (92%)\nWriting library                          : Lavc54.23.100\n\nAudio\nID                                       : 2\nFormat                                   : MPEG Audio\nFormat version                           : Version 1\nFormat profile                           : Layer 3\nCodec ID                                 : 6B\nDuration                                 : 2h 3mn\nBit rate mode                            : Constant\nBit rate                                 : 128 Kbps\nChannel(s)                               : 2 channels\nSampling rate                            : 44.1 KHz\nCompression mode                         : Lossy\nStream size                              : 113 MiB (8%)\nWriting library                          : LAME3.99.5","torrent":{"xt":"urn:btih:1c0363d5a86e40ce634c93d6a00aa0c86c584a70","amp;dn":"The+Day+After+Tomorrow%282004%29MP-4%5BDaScubaDude%5D","amp;tr":["udp%3A%2F%2Ftracker.openbittorrent.com%3A80","udp%3A%2F%2Fopen.demonii.com%3A1337","udp%3A%2F%2Ftracker.coppersurfer.tk%3A6969","udp%3A%2F%2Fexodus.desync.com%3A6969"],"infoHash":"1c0363d5a86e40ce634c93d6a00aa0c86c584a70","infoHashBuffer":{"type":"Buffer","data":[28,3,99,213,168,110,64,206,99,76,147,214,160,10,160,200,108,88,74,112]},"announce":[],"urlList":[]}}